<svg width="22" height="22" viewBox="0 0 22 22" fill="none" xmlns="http://www.w3.org/2000/svg">
<path d="M19.2399 17.645C19.2267 17.7037 19.2304 17.7465 19.2099 17.7684C19.0936 17.8933 18.9742 18.0158 18.8509 18.1342C18.7479 18.2331 18.6355 18.3229 18.5317 18.4212C18.4997 18.4516 18.4856 18.4993 18.4564 18.5335C18.4225 18.5733 18.3846 18.611 18.3422 18.6419C18.2617 18.7006 18.1709 18.7472 18.0952 18.8106C17.9644 18.9198 17.8406 19.0373 17.716 19.1532C17.6793 19.1872 17.6332 19.223 17.6193 19.2662C17.5704 19.4194 17.3488 19.3428 17.3044 19.4967C17.3019 19.5057 17.2783 19.5146 17.2648 19.5141C16.9518 19.5042 16.6745 19.7108 16.3513 19.6512C16.2762 19.6375 16.1813 19.6274 16.1317 19.7311C16.1201 19.7557 16.0451 19.7581 15.9989 19.7596C15.7746 19.7665 15.5498 19.7649 15.326 19.7757C15.1997 19.7817 15.0591 19.7371 14.9572 19.8651C14.9372 19.8903 14.866 19.8806 14.8184 19.8808C14.3482 19.8819 13.8778 19.885 13.4078 19.8782C13.3325 19.8771 13.2583 19.8278 13.1826 19.8051C13.138 19.7916 13.0909 19.7799 13.0447 19.7786C12.8045 19.7715 12.5638 19.7726 12.3236 19.7614C12.2196 19.7565 12.1263 19.749 12.0201 19.6788C11.9175 19.6111 11.7332 19.6583 11.5847 19.6587C11.5742 19.6587 11.5515 19.6943 11.556 19.7047C11.5644 19.7241 11.5865 19.7477 11.6063 19.7512C11.6636 19.7616 11.7253 19.7545 11.7805 19.77C11.8295 19.7837 11.8727 19.8172 11.917 19.8442C11.9289 19.8515 11.938 19.8777 11.9446 19.8764C12.1372 19.8398 12.2774 19.9815 12.4494 20.0135C12.5451 20.0314 12.6623 19.9788 12.7221 20.1131C12.7337 20.1391 12.8313 20.1281 12.8886 20.1369C13.0165 20.1563 13.1657 20.0943 13.2638 20.2365C13.2797 20.2594 13.3441 20.2544 13.3864 20.2557C13.5413 20.2612 13.6962 20.2612 13.8509 20.2694C13.9515 20.2747 14.0632 20.2422 14.136 20.3583C14.1528 20.3853 14.2356 20.3782 14.2879 20.3786C14.6888 20.3822 15.0896 20.3817 15.4902 20.3884C15.5437 20.3892 15.5967 20.4228 15.6497 20.4411C15.6026 20.4669 15.5555 20.4928 15.5084 20.5186C15.4709 20.5394 15.4331 20.5601 15.3956 20.5811C15.3635 20.599 15.3339 20.6235 15.2996 20.6341C15.2313 20.655 15.1296 20.6129 15.1169 20.7327C15.116 20.7407 15.0919 20.7506 15.0778 20.7524C14.9779 20.7645 14.8976 20.801 14.8059 20.8533C14.6451 20.9449 14.4385 20.9595 14.2531 21.0131C14.1962 21.0297 14.1482 21.0736 14.0923 21.095C14.0406 21.1149 13.984 21.123 13.9292 21.1334C13.8068 21.1564 13.673 21.1025 13.5679 21.2396C13.529 21.2904 13.3739 21.2495 13.2751 21.2674C13.2051 21.2802 13.1412 21.3231 13.0731 21.3495C13.0404 21.3623 13.0053 21.3745 12.9708 21.3765C12.8481 21.3831 12.7242 21.3771 12.6029 21.3922C12.5381 21.4001 12.4785 21.4436 12.4146 21.4663C12.3711 21.482 12.3245 21.4992 12.2792 21.4992C11.3067 21.5005 10.3344 21.5003 9.36188 21.4975C9.31888 21.4975 9.27498 21.4736 9.23312 21.4571C9.18307 21.4372 9.13644 21.399 9.08571 21.3939C8.95854 21.3813 8.82956 21.386 8.70171 21.3782C8.61071 21.3727 8.50675 21.3999 8.45124 21.2862C8.441 21.2652 8.37412 21.2714 8.33386 21.2628C8.19441 21.2328 8.02151 21.3195 7.91937 21.1489C7.90845 21.1308 7.84839 21.1425 7.81154 21.1367C7.71122 21.1211 7.58769 21.1738 7.52695 21.0339C7.51672 21.01 7.42754 21.0202 7.37545 21.0111C7.29491 20.9972 7.1864 21.0436 7.15637 20.914C7.15342 20.9012 7.09882 20.9003 7.06856 20.8928C6.96574 20.8674 6.82697 20.9303 6.77351 20.7767C6.7685 20.7621 6.70094 20.7742 6.66773 20.7612C6.61745 20.7411 6.57195 20.7098 6.52464 20.6828C6.50371 20.6709 6.48414 20.6502 6.4623 20.648C6.37063 20.6387 6.30579 20.6166 6.22822 20.5429C6.13517 20.4544 5.95023 20.4621 5.84262 20.3813C5.73275 20.2985 5.566 20.3135 5.49639 20.176C5.49206 20.1674 5.48069 20.1537 5.47614 20.1548C5.31166 20.1996 5.24637 20.0208 5.10442 20.0011C5.02526 19.9901 4.91356 19.9351 4.88967 19.8733C4.84622 19.761 4.75955 19.7821 4.68379 19.7521C4.62055 19.727 4.56345 19.6806 4.51295 19.6342C4.44925 19.576 4.39557 19.5071 4.33551 19.445C4.31913 19.428 4.29593 19.4106 4.2734 19.4068C4.12895 19.3828 4.04705 19.2859 3.96174 19.1819C3.90897 19.1174 3.82457 19.0779 3.75746 19.0238C3.71173 18.987 3.67306 18.9419 3.62847 18.904C3.48766 18.7839 3.34457 18.6662 3.20421 18.5457C3.09501 18.4518 2.98718 18.3567 2.88231 18.2584C2.85455 18.2324 2.84386 18.19 2.81884 18.1602C2.7465 18.0746 2.67211 17.9904 2.59567 17.9081C2.54312 17.8514 2.48125 17.8024 2.43256 17.743C2.37774 17.6763 2.34657 17.5608 2.2806 17.5405C2.17322 17.5072 2.19165 17.4324 2.1598 17.3701C2.12613 17.3048 2.08428 17.2407 2.034 17.1867C1.97554 17.1237 1.90274 17.0736 1.83859 17.0156C1.8213 16.9999 1.80333 16.9767 1.80105 16.9555C1.7849 16.8072 1.68458 16.7175 1.5722 16.635C1.5681 16.6319 1.5631 16.6284 1.56128 16.6239C1.506 16.4999 1.45754 16.3723 1.3943 16.2522C1.33447 16.1387 1.25986 16.0325 1.19024 15.9239C1.18274 15.9124 1.16022 15.9084 1.15544 15.897C1.10516 15.7716 1.0906 15.6104 0.999836 15.5279C0.881542 15.4203 0.950471 15.2338 0.793048 15.1627C0.779172 15.1565 0.76939 15.1303 0.767797 15.1124C0.75938 15.0194 0.777807 14.9155 0.650413 14.879C0.675437 14.7024 0.561237 14.5662 0.508915 14.4115C0.478886 14.3227 0.54463 14.1982 0.396535 14.1545C0.383568 14.1508 0.38789 14.0967 0.381293 14.0666C0.358317 13.9607 0.411094 13.8437 0.277786 13.7527C0.225236 13.717 0.257539 13.5673 0.246392 13.4699C0.238203 13.3988 0.270734 13.313 0.162904 13.2743C0.140155 13.2662 0.131738 13.2017 0.129235 13.1624C0.121273 13.0333 0.128553 12.9023 0.110809 12.7747C0.0998893 12.6959 0.0525715 12.6222 0.0255003 12.5449C0.012306 12.5072 0.001159 12.4663 0.000931511 12.427C-0.000433423 11.4738 -0.000433424 10.5208 0.00184147 9.56753C0.00184147 9.52581 0.0257278 9.48342 0.042107 9.44258C0.0637185 9.38849 0.103529 9.3375 0.109899 9.28231C0.123548 9.1642 0.116723 9.04433 0.125823 8.92556C0.13242 8.83902 0.0973869 8.73835 0.219776 8.68449C0.245937 8.67301 0.236838 8.58978 0.247075 8.54033C0.273008 8.41516 0.187473 8.25709 0.361274 8.17342C0.371739 8.16835 0.366734 8.13457 0.370601 8.11426C0.392213 7.9977 0.333521 7.8542 0.488441 7.78224C0.441805 7.57671 0.633351 7.43255 0.638583 7.23762C0.639948 7.1853 0.693181 7.13408 0.723664 7.08309C0.728214 7.07536 0.743911 7.07271 0.746868 7.0652C0.795778 6.93275 0.835361 6.79632 0.893599 6.66783C0.949333 6.54443 1.02372 6.42897 1.0906 6.31042C1.09788 6.2974 1.11517 6.28901 1.12063 6.27576C1.17387 6.14596 1.18933 5.96957 1.28693 5.89694C1.40818 5.80665 1.33993 5.62386 1.50099 5.58103C1.51351 5.57772 1.52511 5.54791 1.52556 5.53003C1.5292 5.3744 1.64568 5.29448 1.75169 5.20684C1.76579 5.19514 1.77944 5.17483 1.78035 5.15783C1.78991 4.99954 1.91116 4.92493 2.01648 4.82801C2.09383 4.75693 2.12363 4.63904 2.18232 4.54676C2.226 4.47811 2.27787 4.41298 2.33383 4.35294C2.44689 4.23174 2.56633 4.11606 2.68098 3.99641C2.80542 3.8666 2.92826 3.73525 3.05065 3.60367C3.15143 3.49506 3.24356 3.37805 3.35253 3.27805C3.43101 3.20608 3.53452 3.1606 3.6196 3.09482C3.69763 3.03433 3.7661 2.96258 3.83822 2.89503C3.88417 2.85198 3.92444 2.80165 3.97517 2.76522C4.05774 2.70584 4.14715 2.65484 4.23359 2.60031C4.3139 2.54976 4.40694 2.51113 4.472 2.44622C4.56868 2.34953 4.64467 2.24312 4.80163 2.22016C4.87124 2.21001 4.97202 2.14886 4.98817 2.09212C5.03276 1.93516 5.2673 2.04135 5.28619 1.86981C5.28687 1.86452 5.33669 1.86717 5.36239 1.86121C5.42313 1.84708 5.51163 1.87158 5.51072 1.76562C5.51072 1.75855 5.52186 1.74773 5.53005 1.74464C5.65836 1.69608 5.82306 1.68084 5.90632 1.59298C6.01574 1.4773 6.20979 1.54221 6.28077 1.38679C6.28759 1.372 6.32558 1.36869 6.35015 1.36405C6.42704 1.3497 6.52941 1.38237 6.54534 1.25787C6.54647 1.24948 6.59288 1.24594 6.61836 1.24109C6.69389 1.22608 6.78943 1.26206 6.82401 1.1455C6.83084 1.12276 6.92024 1.12298 6.97188 1.11327C7.05264 1.09781 7.15774 1.14152 7.193 1.01481C7.19823 0.995822 7.28013 0.997588 7.32631 0.988537C7.41594 0.970876 7.53901 1.02894 7.57427 0.885883C7.57564 0.880143 7.59247 0.87617 7.60248 0.874183C7.82405 0.828927 8.04517 0.781463 8.26743 0.73996C8.35092 0.724507 8.44624 0.758283 8.50061 0.65276C8.5138 0.627151 8.58796 0.625165 8.6346 0.622515C8.76791 0.61523 8.90258 0.621632 9.03452 0.606179C9.10527 0.59779 9.17102 0.553859 9.24017 0.529354C9.27862 0.515888 9.31957 0.500876 9.35938 0.500876C10.3426 0.499552 11.3256 0.499331 12.3088 0.503084C12.3531 0.503084 12.3966 0.542379 12.4416 0.561144C12.4833 0.578363 12.5256 0.602426 12.569 0.605738C12.6859 0.614789 12.8049 0.606179 12.9209 0.62097C12.9851 0.629138 13.0438 0.672628 13.1068 0.694925C13.1555 0.712144 13.2069 0.723182 13.2579 0.734C13.423 0.769101 13.6205 0.672628 13.7526 0.853211C13.7683 0.874624 13.8345 0.85873 13.8766 0.864911C13.9676 0.877936 14.0836 0.82694 14.1287 0.964033C14.1346 0.982135 14.2069 0.979265 14.2483 0.986992C14.343 1.00443 14.4665 0.949242 14.5141 1.09119C14.5193 1.10686 14.5832 1.10223 14.6189 1.11062C14.7122 1.13247 14.8425 1.07022 14.8821 1.22056C14.8851 1.23204 14.9415 1.2285 14.972 1.23557C15.0366 1.25036 15.1324 1.21239 15.1406 1.32696C15.141 1.33447 15.1528 1.34462 15.1615 1.34772C15.2955 1.39474 15.4345 1.4316 15.5632 1.48944C15.6863 1.54485 15.7991 1.62168 15.9161 1.68989C15.9245 1.69475 15.9274 1.70932 15.9359 1.71263C16.0646 1.76407 16.1972 1.80756 16.3219 1.86695C16.4366 1.92169 16.5437 1.99168 16.6524 2.05768C16.7512 2.11729 16.8504 2.17667 16.9443 2.24312C17.0278 2.30207 17.1026 2.37205 17.1843 2.43386C17.261 2.4917 17.3397 2.54733 17.4205 2.59965C17.5076 2.65617 17.6054 2.69943 17.685 2.7639C17.8176 2.87097 17.9405 2.98951 18.0649 3.10586C18.0993 3.13809 18.1195 3.18467 18.1546 3.21579C18.3593 3.39638 18.633 3.50587 18.7442 3.78403C18.7729 3.85578 18.8646 3.90302 18.9248 3.96395C18.9883 4.0282 19.0486 4.09531 19.1105 4.16109C19.1692 4.22379 19.2267 4.28737 19.2872 4.3483C19.3486 4.41011 19.4235 4.46199 19.4731 4.53153C19.5343 4.61741 19.5677 4.72183 19.6278 4.80859C19.6735 4.87481 19.7445 4.92426 19.7995 4.98497C19.8289 5.01743 19.8484 5.05805 19.8721 5.09513C19.9483 5.21589 20.0443 5.32936 20.0941 5.45961C20.1369 5.57154 20.2575 5.62099 20.2777 5.7583C20.2948 5.87442 20.4106 5.97707 20.4834 6.08547C20.4884 6.09319 20.5029 6.09584 20.5059 6.10357C20.5557 6.23095 20.6039 6.35921 20.654 6.48659C20.666 6.51706 20.6829 6.54575 20.699 6.57445C20.7231 6.61706 20.7482 6.659 20.7736 6.70073C20.8016 6.74687 20.8301 6.79256 20.8592 6.83804C20.8694 6.85394 20.8903 6.8674 20.8926 6.88374C20.906 6.98065 20.9418 7.05858 20.9959 7.14821C21.0903 7.30429 21.1058 7.50452 21.1613 7.68422C21.1783 7.73941 21.2236 7.78599 21.2457 7.84052C21.2662 7.89063 21.2748 7.9456 21.285 7.99902C21.3078 8.11801 21.2539 8.24848 21.3951 8.34893C21.4447 8.38403 21.4042 8.5273 21.4229 8.61782C21.4379 8.69067 21.4814 8.75756 21.5096 8.8282C21.5223 8.86021 21.5341 8.89421 21.5362 8.92799C21.5428 9.04168 21.5357 9.15691 21.5517 9.26906C21.5612 9.33728 21.6058 9.40063 21.6299 9.46753C21.6454 9.51013 21.6615 9.55561 21.6615 9.59976C21.6631 10.5323 21.6636 11.4648 21.659 12.397C21.6588 12.45 21.6138 12.5023 21.5915 12.5558C21.5765 12.592 21.556 12.6288 21.5535 12.6664C21.5448 12.7902 21.5496 12.9154 21.5355 13.0386C21.5294 13.0913 21.485 13.139 21.4661 13.1915C21.4459 13.2474 21.4347 13.3063 21.4206 13.3642C21.3913 13.4843 21.4743 13.6339 21.3128 13.7227C21.2875 13.7366 21.2939 13.8099 21.2912 13.856C21.2775 14.0761 21.2154 14.143 20.9879 14.1797C20.9627 14.1836 20.9188 14.1885 20.9165 14.1998C20.8876 14.3304 20.7773 14.2808 20.6977 14.2969C20.626 14.3112 20.5286 14.277 20.5107 14.392C20.5095 14.3991 20.4941 14.4106 20.4881 14.4093C20.2802 14.3605 20.1323 14.53 19.9424 14.551C19.8782 14.5581 19.8184 14.6046 19.7572 14.6342C19.7397 14.6428 19.7249 14.6636 19.7079 14.6647C19.6062 14.6711 19.5329 14.7066 19.4428 14.7687C19.3088 14.8609 19.1164 14.872 18.9505 14.9228C18.908 14.9358 18.8714 14.9669 18.8329 14.9912C18.8204 14.9991 18.8095 15.0232 18.8011 15.0219C18.6102 14.9907 18.4696 15.1199 18.3108 15.1784C18.1637 15.2325 18.0119 15.2755 17.8709 15.3329C17.8017 15.361 17.6982 15.3833 17.6554 15.4285C17.5503 15.5396 17.3661 15.4892 17.2862 15.6257C17.2815 15.6338 17.2712 15.6415 17.2619 15.6444C17.1015 15.6948 16.94 15.742 16.7808 15.7959C16.7394 15.81 16.7055 15.8451 16.6679 15.87C16.6481 15.8833 16.6286 15.9036 16.607 15.9067C16.5187 15.919 16.4523 15.9325 16.3733 16.0076C16.2769 16.099 16.1042 16.1166 15.9625 16.1603C15.8895 16.1829 15.7816 16.1369 15.7657 16.2623C15.7652 16.2661 15.7593 16.2707 15.755 16.272C15.6071 16.3188 15.4581 16.3628 15.3114 16.4133C15.2493 16.4347 15.192 16.4696 15.1333 16.4994C15.1253 16.5036 15.1226 16.5193 15.1149 16.5219C14.9704 16.5681 14.8264 16.6164 14.6803 16.6573C14.6019 16.6791 14.4911 16.6266 14.4626 16.7544C14.4613 16.7608 14.4458 16.7665 14.436 16.7688C14.2256 16.8164 14.0156 16.865 13.8045 16.9098C13.7224 16.9273 13.6223 16.8871 13.5759 17.0041C13.5663 17.0281 13.4794 17.0229 13.4282 17.0317C13.2974 17.0542 13.1443 16.9862 13.0424 17.1379C13.0213 17.1694 12.9203 17.1458 12.8577 17.1566C12.7048 17.1831 12.5244 17.0986 12.4036 17.265C12.3898 17.2842 12.3327 17.2754 12.2954 17.2765C12.1138 17.2818 11.9316 17.2789 11.751 17.2942C11.6748 17.3006 11.6029 17.3469 11.5276 17.3714C11.4887 17.3842 11.4468 17.3959 11.4063 17.3962C10.7384 17.3973 10.0703 17.3986 9.40237 17.3928C9.34368 17.3924 9.28635 17.3421 9.22675 17.3191C9.18922 17.3048 9.14872 17.2915 9.10891 17.2895C8.9756 17.2829 8.84138 17.2869 8.70853 17.2763C8.61162 17.2688 8.51039 17.3045 8.42849 17.1862C8.39346 17.1357 8.23808 17.1661 8.13799 17.1542C8.06064 17.1449 7.96077 17.1847 7.92438 17.0692C7.91983 17.0551 7.87956 17.0478 7.85454 17.044C7.72601 17.0242 7.60862 17.0173 7.48123 16.9394C7.3188 16.8401 7.09882 16.8299 6.90477 16.7771C6.86564 16.7665 6.83061 16.739 6.79603 16.7158C6.78511 16.7085 6.77965 16.6776 6.77578 16.6782C6.61358 16.7092 6.52691 16.5515 6.38428 16.5308C6.34378 16.5248 6.30875 16.4851 6.27099 16.4615C6.2471 16.4464 6.2239 16.4275 6.19751 16.4195C6.12539 16.3981 6.02257 16.4394 6.00164 16.3116C5.99891 16.2954 5.86628 16.2974 5.79394 16.2979C5.78825 16.2979 5.76846 16.3674 5.77938 16.3762C5.8474 16.431 5.92065 16.4802 5.9955 16.5259C6.0874 16.582 6.22253 16.6122 6.26553 16.6915C6.30852 16.7701 6.36266 16.7621 6.4159 16.7913C6.5028 16.8385 6.58151 16.8999 6.66386 16.9553C6.70071 16.98 6.73711 17.0054 6.77487 17.0288C6.86951 17.0873 6.9646 17.1449 7.05946 17.203C7.09996 17.2277 7.1409 17.252 7.18072 17.2778C7.22576 17.307 7.26944 17.3379 7.31402 17.3675C7.33017 17.3783 7.34633 17.3937 7.36407 17.3964C7.45188 17.4096 7.51945 17.4174 7.59474 17.5023C7.67459 17.5924 7.84385 17.6068 7.97238 17.658C8.00968 17.673 8.0429 17.6993 8.07566 17.7233C8.0868 17.7315 8.08794 17.7564 8.09863 17.76C8.24172 17.8085 8.38481 17.8575 8.52973 17.9004C8.60025 17.9211 8.69693 17.8858 8.719 17.9986C8.72127 18.0103 8.76245 18.0194 8.78633 18.0222C8.87096 18.0324 8.96855 18.0092 9.00404 18.1258C9.00882 18.1412 9.07206 18.1401 9.10823 18.1465C9.20832 18.164 9.3314 18.1132 9.391 18.2523C9.40101 18.2759 9.49041 18.266 9.54251 18.2746C9.62349 18.2878 9.727 18.2448 9.76476 18.371C9.77091 18.392 9.86236 18.388 9.914 18.3975C10.04 18.4205 10.1881 18.3543 10.2853 18.505C10.3069 18.5386 10.4172 18.5141 10.4852 18.5245C10.5887 18.5401 10.7136 18.4927 10.7814 18.6256C10.793 18.6483 10.8704 18.6382 10.917 18.6457C11.0965 18.6746 11.3012 18.5865 11.4518 18.7583C11.4687 18.7775 11.5237 18.7666 11.561 18.7675C11.7212 18.7713 11.8818 18.7713 12.0417 18.7786C12.1486 18.7836 12.2658 18.7552 12.3459 18.8671C12.3622 18.89 12.4259 18.8865 12.4678 18.8865C13.1787 18.8876 13.8894 18.8889 14.6003 18.8848C14.6551 18.8845 14.7086 18.8404 14.7645 18.8214C14.8132 18.8048 14.8639 18.7863 14.9144 18.7841C15.1064 18.7757 15.2993 18.7783 15.4911 18.7671C15.5958 18.7609 15.7036 18.7872 15.7937 18.6746C15.833 18.6256 15.9761 18.6596 16.0705 18.6457C16.1931 18.6273 16.331 18.6872 16.4331 18.5448C16.4657 18.4995 16.6072 18.5362 16.6945 18.5167C16.7746 18.4991 16.8474 18.4529 16.9259 18.4267C16.9741 18.4106 17.0274 18.4086 17.0781 18.3989C17.1675 18.3816 17.2883 18.4406 17.329 18.2988C17.3329 18.2856 17.3875 18.2867 17.4184 18.2803C17.5269 18.2578 17.6641 18.3178 17.7307 18.1686C17.7403 18.1472 17.8208 18.1569 17.8679 18.1496C17.95 18.137 18.0565 18.1761 18.0881 18.0498C18.0913 18.037 18.1448 18.0366 18.1748 18.0295C18.244 18.0132 18.3452 18.0558 18.3586 17.9355C18.3593 17.9289 18.3741 17.9216 18.3839 17.9187C18.5499 17.869 18.716 17.8198 18.8825 17.7708C18.9073 17.7635 18.9524 17.7631 18.9551 17.7518C18.9947 17.5946 19.1191 17.6701 19.2417 17.6467L19.2399 17.645ZM7.30765 11.8027C7.30856 11.8685 7.30629 11.9348 7.3122 12.0003C7.31402 12.0195 7.33586 12.0478 7.35338 12.0518C7.37249 12.0562 7.40684 12.0436 7.41799 12.0277C7.46667 11.9573 7.39797 11.8279 7.30401 11.8063C7.30401 11.2005 7.29264 10.5943 7.31084 9.98918C7.31721 9.77659 7.39592 9.56621 7.44233 9.35494C7.44437 9.34589 7.45211 9.33176 7.45893 9.33087C7.58701 9.31123 7.53742 9.20747 7.56062 9.1366C7.60612 8.9973 7.65844 8.86021 7.70917 8.72268C7.7119 8.71539 7.72851 8.71385 7.73374 8.70634C7.76172 8.66638 7.78743 8.6251 7.81495 8.5847C7.84544 8.54011 7.87569 8.49529 7.90777 8.45202C7.95759 8.38491 8.04563 8.32244 8.05268 8.25179C8.07247 8.04914 8.26902 7.97893 8.35979 7.8297C8.42485 7.72285 8.57318 7.66413 8.6032 7.51799C8.60753 7.49701 8.64802 7.48355 8.671 7.46589C8.76882 7.38972 8.86595 7.3129 8.96423 7.23696C9.0327 7.18397 9.11824 7.1438 9.16806 7.07779C9.24063 6.98198 9.36074 6.98441 9.43786 6.92855C9.56366 6.83716 9.65125 6.69786 9.83437 6.70007C9.84552 6.70007 9.85576 6.68108 9.86804 6.67335C9.91877 6.64223 9.96837 6.60867 10.0221 6.5835C10.0491 6.5707 10.1087 6.58085 10.1121 6.56915C10.1567 6.41639 10.2923 6.48151 10.3888 6.45325C10.4324 6.44045 10.4711 6.41109 10.5118 6.38923C10.541 6.37356 10.5683 6.34883 10.5992 6.3431C10.7571 6.31395 10.9418 6.38283 11.064 6.22013C11.0719 6.20953 11.1049 6.21594 11.1263 6.21594C11.73 6.21594 12.3336 6.21572 12.9373 6.21748C12.978 6.21748 13.0488 6.22433 13.0545 6.24287C13.0911 6.35943 13.1901 6.31572 13.2658 6.3336C13.4512 6.37731 13.6357 6.42456 13.8202 6.47114C13.8286 6.47334 13.8407 6.48328 13.8414 6.49034C13.8518 6.60139 13.9467 6.56783 14.0115 6.58461C14.0411 6.59211 14.0952 6.59454 14.0971 6.60536C14.1153 6.71817 14.2088 6.69344 14.2816 6.71066C14.3114 6.71773 14.3375 6.74113 14.3635 6.75945C14.3928 6.77998 14.4169 6.81177 14.449 6.82369C14.5154 6.84842 14.6 6.81685 14.6289 6.93164C14.6435 6.98904 14.7495 7.06653 14.81 7.06322C14.9577 7.05505 15.0161 7.17492 15.1067 7.2332C15.2275 7.31069 15.2943 7.46279 15.4058 7.55993C15.5587 7.69327 15.7316 7.80144 15.7971 8.0094C15.8185 8.07717 15.8815 8.13634 15.9359 8.18954C16.0303 8.28182 16.1522 8.3529 16.1593 8.50368C16.1604 8.5262 16.1749 8.56682 16.1856 8.5677C16.3021 8.57543 16.2684 8.6666 16.2866 8.72908C16.2957 8.76087 16.3067 8.79288 16.3224 8.82202C16.3503 8.87368 16.4052 8.9218 16.4086 8.9739C16.4215 9.16442 16.531 9.32823 16.586 9.50263C16.6277 9.63442 16.6506 9.76445 16.6738 9.89779C16.6832 9.95165 16.6911 10.0068 16.7095 10.0581C16.7303 10.1159 16.7846 10.1698 16.7855 10.2258C16.7917 10.6142 16.7883 11.0027 16.786 11.3912C16.7858 11.4319 16.7885 11.4939 16.7644 11.5096C16.629 11.5981 16.6813 11.7305 16.6718 11.8464C16.6693 11.8751 16.7061 11.9067 16.7248 11.9372C16.7475 11.9109 16.7787 11.8877 16.7914 11.8575C16.811 11.8111 16.8074 11.7235 16.8322 11.7164C16.9436 11.6853 16.9138 11.5999 16.9288 11.531C16.9343 11.506 16.9332 11.4621 16.9445 11.459C17.0929 11.4182 17.0387 11.299 17.054 11.2065C17.0606 11.1663 17.0608 11.0983 17.0813 11.0912C17.2209 11.0442 17.1641 10.9318 17.1795 10.8444C17.1946 10.7592 17.2021 10.6722 17.2248 10.5892C17.2405 10.5316 17.2997 10.4793 17.3001 10.4243C17.3049 9.81831 17.3024 9.21233 17.3008 8.60634C17.3008 8.57035 17.3074 8.51318 17.2881 8.50148C17.1186 8.39926 17.2055 8.23391 17.1739 8.09881C17.1638 8.05576 17.1481 8.01293 17.129 7.97275C17.1077 7.92794 17.0708 7.88886 17.0553 7.84295C17.0028 7.68687 16.9575 7.52836 16.9063 7.37184C16.9015 7.35727 16.8715 7.35241 16.8576 7.33851C16.8356 7.31621 16.811 7.29303 16.7985 7.26543C16.7407 7.13651 16.6873 7.0056 16.6302 6.87645C16.6249 6.86475 16.6006 6.86188 16.5926 6.84996C16.5278 6.7557 16.4655 6.66011 16.4013 6.5654C16.351 6.49145 16.3042 6.41462 16.2471 6.34596C16.2048 6.29497 16.1472 6.25567 16.0983 6.20953C16.0325 6.1475 15.9666 6.08569 15.904 6.02078C15.8467 5.9614 15.8003 5.8912 15.7379 5.83755C15.6274 5.74263 15.4927 5.67 15.3978 5.56337C15.3025 5.4563 15.2243 5.34459 15.0648 5.32826C15.0475 5.32649 15.0295 5.30971 15.0166 5.2958C14.9276 5.20088 14.8487 5.09315 14.6976 5.08586C14.6735 5.08476 14.6328 5.0746 14.6292 5.06092C14.585 4.90042 14.3534 5.00727 14.3111 4.84854C14.1248 4.85671 13.9879 4.71896 13.8072 4.68341C13.6828 4.65891 13.549 4.59511 13.408 4.58407C13.3925 4.58297 13.3677 4.58098 13.3636 4.57237C13.2872 4.40857 13.1336 4.49201 13.0144 4.47126C12.9157 4.45404 12.7703 4.49025 12.7228 4.43749C12.637 4.34212 12.5472 4.35625 12.4521 4.35514C12.1529 4.35183 11.8536 4.3536 11.5544 4.3547C11.5121 4.3547 11.4445 4.34786 11.4318 4.36883C11.3497 4.50438 11.2084 4.47965 11.1017 4.46155C10.8119 4.4121 10.5826 4.63109 10.3035 4.60659C10.2912 4.60549 10.2673 4.61917 10.2661 4.628C10.2518 4.73618 10.1599 4.70218 10.0946 4.72139C9.94403 4.76532 9.76499 4.78187 9.65625 4.87437C9.57822 4.94082 9.51407 4.96533 9.42581 4.98144C9.40283 4.98564 9.38713 5.0203 9.36484 5.03729C9.28863 5.09535 9.2156 5.1596 9.13257 5.20618C9.07297 5.23973 8.98015 5.19955 8.95831 5.31788C8.94831 5.37219 8.8523 5.44835 8.79316 5.45034C8.57409 5.45762 8.50538 5.66072 8.3491 5.74947C8.22694 5.81879 8.16893 5.98723 8.05473 6.07951C7.94053 6.17201 7.82155 6.24552 7.8054 6.40447C7.80358 6.42213 7.77241 6.43604 7.75694 6.45348C7.68187 6.53736 7.56654 6.59211 7.5538 6.72082C7.55129 6.7462 7.5522 6.78109 7.53628 6.79477C7.41457 6.89743 7.29196 6.99743 7.29628 7.17492C7.29651 7.1853 7.27581 7.19501 7.26807 7.20693C7.23622 7.25594 7.2021 7.30429 7.17616 7.35617C7.16297 7.38244 7.1723 7.44028 7.1607 7.44315C6.99941 7.48399 7.06856 7.61644 7.04331 7.71005C7.03535 7.73963 7.04081 7.79217 7.02602 7.79747C6.87383 7.85332 6.9373 7.98357 6.9141 8.08335C6.90523 8.12155 6.89635 8.1604 6.88088 8.19616C6.85495 8.25599 6.80741 8.31118 6.79831 8.37255C6.7817 8.4847 6.78852 8.59993 6.78147 8.71363C6.77942 8.74762 6.76737 8.78206 6.75395 8.81407C6.72824 8.87567 6.67546 8.93527 6.67432 8.99642C6.6675 9.37436 6.67159 9.75275 6.67319 10.1309C6.67319 10.172 6.66522 10.2322 6.68888 10.251C6.83857 10.3707 6.77055 10.5347 6.7933 10.6795C6.80035 10.7239 6.80331 10.77 6.81923 10.8113C6.84653 10.8822 6.89112 10.9475 6.91342 11.0195C6.96619 11.1899 7.00987 11.3632 7.05833 11.535C7.0606 11.5433 7.07038 11.555 7.07766 11.5557C7.19072 11.5659 7.17207 11.6559 7.17389 11.7204C7.17685 11.8235 7.22621 11.8314 7.30743 11.8027H7.30765ZM13.8562 15.9226C13.6755 15.9232 13.4949 15.9226 13.3143 15.9263C13.2854 15.927 13.2572 15.9486 13.2285 15.9601C13.1698 15.9839 13.1114 16.0274 13.0527 16.0281C12.433 16.033 11.8133 16.0312 11.1934 16.0305C11.1509 16.0305 11.0867 16.0411 11.069 16.0193C10.935 15.853 10.745 15.94 10.5824 15.9084C10.5257 15.8974 10.4318 15.9047 10.4183 15.8758C10.3697 15.7716 10.2823 15.7892 10.2034 15.7897C10.007 15.7908 9.86736 15.5996 9.65966 15.6429C9.65193 15.6444 9.64055 15.6204 9.62827 15.6122C9.59028 15.5875 9.55343 15.5588 9.5118 15.5422C9.38258 15.4908 9.25109 15.4442 9.12097 15.3947C9.11346 15.3919 9.11232 15.3755 9.10482 15.3705C9.06364 15.3431 9.0211 15.3179 8.9797 15.2908C8.9342 15.2607 8.89075 15.2274 8.84412 15.1991C8.75494 15.1453 8.66372 15.0949 8.57454 15.0409C8.53314 15.0157 8.49515 14.985 8.45465 14.9583C8.37026 14.9024 8.28404 14.849 8.20078 14.7914C8.11433 14.7316 8.02584 14.6733 7.9469 14.6046C7.83475 14.5073 7.73033 14.4013 7.62318 14.2987C7.51581 14.1958 7.4082 14.0931 7.30242 13.9892C7.23827 13.9262 7.17457 13.8624 7.11543 13.7953C7.04923 13.7203 6.9828 13.6441 6.92661 13.562C6.8934 13.5134 6.92115 13.4437 6.82105 13.4158C6.75531 13.3975 6.71232 13.2889 6.6675 13.2158C6.60972 13.1213 6.58515 12.9873 6.50234 12.9326C6.36949 12.8449 6.36471 12.6975 6.30215 12.5893C6.22435 12.4546 6.08831 12.31 6.12926 12.1226C6.0071 12.0641 6.02143 11.952 6.01324 11.8482C6.0121 11.835 6.00209 11.8133 5.99254 11.8113C5.86992 11.7857 5.90314 11.6882 5.89404 11.612C5.88448 11.5299 5.91428 11.4087 5.86878 11.3714C5.69589 11.2301 5.79098 11.0477 5.75663 10.8877C5.7448 10.8329 5.75663 10.7475 5.7241 10.7274C5.62469 10.6658 5.64152 10.5791 5.64084 10.4954C5.63766 10.0861 5.62992 9.67681 5.64016 9.26774C5.64448 9.09819 5.57328 8.90745 5.74389 8.7644C5.76437 8.74718 5.75504 8.69508 5.75686 8.65888C5.76209 8.54519 5.76437 8.43105 5.77096 8.31736C5.77301 8.28248 5.77711 8.22332 5.79462 8.2178C5.91974 8.17872 5.87129 8.07673 5.89131 7.99858C5.93567 7.82396 5.98571 7.65066 6.03371 7.4767C6.03508 7.47185 6.03735 7.46368 6.04031 7.46302C6.18227 7.43807 6.13335 7.32482 6.15087 7.24159C6.15929 7.20163 6.16543 7.15814 6.18636 7.12415C6.25506 7.01288 6.32991 6.90537 6.40293 6.79654C6.44183 6.73848 6.48983 6.68439 6.5194 6.62214C6.57764 6.49984 6.62519 6.3729 6.6791 6.24861C6.68411 6.23691 6.70321 6.23139 6.71459 6.22168C6.78033 6.1656 6.85108 6.11395 6.90955 6.05147C6.95937 5.99805 6.99713 5.93336 7.03649 5.87155C7.09381 5.78192 7.13431 5.67772 7.20688 5.60244C7.30606 5.49979 7.43095 5.42076 7.54038 5.32671C7.5952 5.27947 7.64092 5.22207 7.68938 5.16821C7.74693 5.10441 7.79948 5.03575 7.86113 4.97592C7.90959 4.9289 7.9635 4.86797 8.02402 4.85561C8.16961 4.82581 8.24627 4.72712 8.33727 4.63087C8.39892 4.56575 8.48582 4.51895 8.56863 4.47766C8.6876 4.41828 8.81318 4.37148 8.93556 4.31828C8.94376 4.31474 8.94626 4.29951 8.95445 4.29465C9.06865 4.2282 9.17875 4.1527 9.29909 4.09906C9.43126 4.04034 9.57322 4.00215 9.71062 3.95424C9.71904 3.95137 9.72313 3.9379 9.73155 3.93283C9.77841 3.90435 9.8255 3.85379 9.87328 3.85291C10.0855 3.84938 10.2477 3.65489 10.4732 3.71052C10.4818 3.71273 10.4948 3.69065 10.508 3.68403C10.5628 3.65577 10.6165 3.61294 10.6745 3.60544C10.7903 3.59043 10.909 3.59705 11.0264 3.59021C11.0665 3.58778 11.1072 3.57564 11.1449 3.56151C11.2089 3.53744 11.2705 3.48579 11.3338 3.48512C11.8627 3.47894 12.3916 3.48115 12.9205 3.48314C12.9664 3.48314 13.0138 3.49616 13.0577 3.51117C13.1266 3.53479 13.1907 3.57895 13.2608 3.58932C13.3709 3.60544 13.4847 3.59815 13.5964 3.60632C13.6355 3.60919 13.6742 3.62619 13.7112 3.64098C13.7731 3.66549 13.832 3.69926 13.8957 3.71604C13.9171 3.72156 13.9499 3.68712 13.9774 3.671C13.9562 3.64849 13.9396 3.61736 13.9133 3.60455C13.8077 3.55378 13.6582 3.53568 13.6018 3.4551C13.5261 3.34649 13.4373 3.36393 13.3438 3.34781C13.3079 3.34163 13.2465 3.33721 13.2415 3.31977C13.2094 3.20829 13.1157 3.23323 13.0376 3.22131C13.0119 3.21734 12.9664 3.21447 12.9642 3.20387C12.9335 3.06546 12.817 3.11888 12.7326 3.10321C12.6857 3.0946 12.6059 3.10409 12.5961 3.08201C12.5283 2.93013 12.39 2.99768 12.2819 2.97605C12.2301 2.96567 12.1504 2.98488 12.1272 2.95662C11.9967 2.79856 11.8165 2.87737 11.66 2.84845C11.6161 2.84028 11.5728 2.82615 11.5312 2.81026C11.4759 2.78906 11.4227 2.74292 11.3681 2.74248C10.743 2.73652 10.1181 2.73674 9.49291 2.73785C9.44878 2.73785 9.40306 2.75551 9.36051 2.77118C9.30091 2.79326 9.24518 2.83719 9.18467 2.84359C9.04704 2.85816 8.90736 2.85331 8.76859 2.86081C8.72195 2.86324 8.64847 2.86545 8.63437 2.89172C8.57522 3.00144 8.47308 2.96192 8.38573 2.98113C8.20669 3.02064 8.0297 3.06987 7.85249 3.11689C7.84021 3.12021 7.83406 3.14029 7.82201 3.14846C7.78424 3.17429 7.74807 3.20696 7.70576 3.22109C7.54629 3.27385 7.38273 3.3158 7.22462 3.37209C7.17525 3.38953 7.13795 3.46967 7.09563 3.46923C6.94708 3.46812 6.88771 3.59771 6.77783 3.65069C6.66795 3.70368 6.57059 3.82797 6.46503 3.83084C6.31694 3.83459 6.24755 3.94166 6.17203 4.00192C6.05669 4.09398 5.97411 4.21783 5.80759 4.2335C5.79622 4.23461 5.78552 4.25161 5.77597 4.26242C5.67951 4.36949 5.5892 4.4823 5.48524 4.58186C5.42382 4.64081 5.33623 4.67326 5.26981 4.72823C5.21384 4.77459 5.17358 4.83817 5.12217 4.89027C5.01206 5.00175 4.89672 5.10816 4.78889 5.22163C4.72679 5.2872 4.67083 5.35938 4.62032 5.43378C4.56027 5.52231 4.5241 5.6307 4.44994 5.70421C4.35189 5.80135 4.2254 5.87177 4.22245 6.02984C4.22222 6.0475 4.21153 6.07178 4.1972 6.08105C4.06411 6.1698 4.03773 6.32212 3.97335 6.44818C3.91511 6.56209 3.80478 6.65569 3.81046 6.80162C3.81137 6.82722 3.72197 6.85438 3.72129 6.88197C3.71742 7.06211 3.52474 7.18574 3.56864 7.37692C3.42009 7.46434 3.47014 7.61711 3.43988 7.74338C3.43624 7.75817 3.4326 7.78069 3.42237 7.78489C3.29793 7.83743 3.3382 7.94604 3.32887 8.03721C3.32409 8.08357 3.34002 8.15444 3.31499 8.17254C3.13619 8.30014 3.224 8.48315 3.20216 8.64122C3.1851 8.76396 3.23196 8.92379 3.16735 9.00481C3.05179 9.14985 3.08568 9.29599 3.08204 9.44258C3.07454 9.75827 3.08136 10.0744 3.08455 10.3905C3.085 10.436 3.08273 10.5064 3.10911 10.5221C3.22172 10.5888 3.19101 10.691 3.19602 10.7839C3.20261 10.908 3.2017 11.0325 3.20716 11.1566C3.20898 11.197 3.20921 11.2636 3.23082 11.2729C3.36595 11.331 3.30839 11.4466 3.33001 11.5391C3.37596 11.7345 3.4276 11.9286 3.47742 12.1231C3.47992 12.1326 3.48675 12.1465 3.49403 12.1482C3.60277 12.1734 3.5782 12.2617 3.58843 12.3332C3.59276 12.3635 3.58775 12.4127 3.60413 12.4206C3.79317 12.5123 3.6999 12.7313 3.82639 12.871C3.9051 12.958 3.96925 13.0935 4.04955 13.2035C4.1178 13.2971 4.1699 13.403 4.21972 13.5077C4.24929 13.5699 4.21153 13.6565 4.33164 13.6812C4.38829 13.6929 4.46449 13.783 4.46791 13.841C4.47996 14.0485 4.6772 14.1287 4.76819 14.281C4.84008 14.4013 4.99887 14.47 5.1051 14.5748C5.2102 14.6784 5.28869 14.8075 5.39583 14.9088C5.50435 15.0115 5.65085 15.0793 5.74913 15.1888C5.84877 15.3 5.93225 15.4135 6.09696 15.4292C6.10947 15.4303 6.12289 15.4446 6.13199 15.4559C6.21548 15.5566 6.29351 15.6634 6.44388 15.6758C6.46367 15.6773 6.4871 15.6859 6.50075 15.6989C6.60676 15.799 6.69798 15.9197 6.86837 15.9208C6.88339 15.9208 6.89726 15.9447 6.91342 15.955C6.95436 15.982 6.99372 16.0237 7.03831 16.0308C7.17617 16.0522 7.2551 16.21 7.41321 16.1791C7.41639 16.1784 7.42117 16.1979 7.42891 16.2029C7.47031 16.2299 7.50989 16.2619 7.55562 16.2793C7.59383 16.2939 7.66868 16.2789 7.67687 16.2977C7.73988 16.4418 7.87387 16.3908 7.98057 16.4129C8.01014 16.4191 8.06201 16.4235 8.06497 16.4367C8.09226 16.5586 8.1935 16.5208 8.27039 16.5303C8.35501 16.5407 8.47763 16.5113 8.51881 16.5557C8.65666 16.7045 8.83001 16.6354 8.98584 16.6652C9.0252 16.6727 9.06341 16.6866 9.10072 16.701C9.16033 16.7237 9.21856 16.7703 9.27748 16.7707C10.0148 16.776 10.7521 16.7749 11.4891 16.7745C11.5314 16.7745 11.5972 16.7805 11.6122 16.7584C11.7137 16.6094 11.869 16.6771 12.0017 16.6562C12.0581 16.6473 12.1518 16.6562 12.165 16.6284C12.2173 16.5182 12.3138 16.5526 12.3968 16.5341C12.6016 16.4884 12.8195 16.4643 13.0022 16.3743C13.0934 16.3292 13.2028 16.3171 13.2692 16.2654C13.3618 16.1935 13.4449 16.146 13.5604 16.1469C13.5675 16.1469 13.5807 16.1341 13.5809 16.1268C13.5854 16.0122 13.683 16.0323 13.746 16.0345C13.8436 16.0378 13.8439 15.9795 13.8521 15.9177C13.9144 15.9111 13.9772 15.9067 14.0388 15.8965C14.0559 15.8939 14.0784 15.8771 14.0832 15.8623C14.0877 15.8477 14.0745 15.8129 14.0659 15.8118C14.0045 15.8043 13.9406 15.7948 13.8812 15.8056C13.8659 15.8084 13.8646 15.8817 13.8568 15.9228L13.8562 15.9226Z" fill="gray"/>
</svg>
